<svg width="28" height="27" viewBox="0 0 28 27" fill="none" xmlns="http://www.w3.org/2000/svg">
<path d="M25.25 21.75V23H2.75002V21.75L5.25002 19.25V11.75C5.25002 7.875 7.78752 4.4625 11.5 3.3625V3C11.5 2.33696 11.7634 1.70107 12.2323 1.23223C12.7011 0.763392 13.337 0.5 14 0.5C14.6631 0.5 15.2989 0.763392 15.7678 1.23223C16.2366 1.70107 16.5 2.33696 16.5 3V3.3625C20.2125 4.4625 22.75 7.875 22.75 11.75V19.25L25.25 21.75ZM16.5 24.25C16.5 24.913 16.2366 25.5489 15.7678 26.0178C15.2989 26.4866 14.6631 26.75 14 26.75C13.337 26.75 12.7011 26.4866 12.2323 26.0178C11.7634 25.5489 11.5 24.913 11.5 24.25M23.6875 1.9875L21.9125 3.7625C22.9697 4.80677 23.8091 6.05053 24.382 7.42165C24.955 8.79278 25.25 10.264 25.25 11.75H27.75C27.75 8.0875 26.3 4.5625 23.6875 1.9875ZM0.250024 11.75H2.75002C2.75002 8.75 3.95002 5.875 6.08752 3.7625L4.31252 1.9875C3.02238 3.26446 1.99886 4.78509 1.30145 6.46101C0.604042 8.13694 0.246644 9.93476 0.250024 11.75Z" fill="white"/>
</svg>
